<?xml version="1.0" encoding="UTF-8"?>
<svg xmlns="http://www.w3.org/2000/svg" xmlns:xlink="http://www.w3.org/1999/xlink" fill-opacity="1" color-rendering="auto" color-interpolation="auto" stroke="black" text-rendering="auto" stroke-linecap="square" width="742" stroke-miterlimit="10" stroke-opacity="1" shape-rendering="auto" fill="black" stroke-dasharray="none" font-weight="normal" stroke-width="1" height="412" font-family="'Dialog'" font-style="normal" stroke-linejoin="miter" font-size="12" stroke-dashoffset="0" image-rendering="auto">
  <!--Generated by ySVG-->
  <defs id="genericDefs"/>
  <g>
    <defs id="defs1">
      <linearGradient x1="-97" gradientUnits="userSpaceOnUse" x2="-17" y1="175" y2="215" id="linearGradient1" spreadMethod="reflect">
        <stop stop-opacity="1" stop-color="rgb(102,102,255)" offset="0%"/>
        <stop stop-opacity="1" stop-color="rgb(102,102,255)" offset="100%"/>
      </linearGradient>
      <linearGradient x1="-97" gradientUnits="userSpaceOnUse" x2="-17" y1="229" y2="269" id="linearGradient2" spreadMethod="reflect">
        <stop stop-opacity="1" stop-color="rgb(102,102,255)" offset="0%"/>
        <stop stop-opacity="1" stop-color="rgb(102,102,255)" offset="100%"/>
      </linearGradient>
      <linearGradient x1="-97" gradientUnits="userSpaceOnUse" x2="-17" y1="283" y2="323" id="linearGradient3" spreadMethod="reflect">
        <stop stop-opacity="1" stop-color="rgb(102,102,255)" offset="0%"/>
        <stop stop-opacity="1" stop-color="rgb(102,102,255)" offset="100%"/>
      </linearGradient>
      <linearGradient x1="-97" gradientUnits="userSpaceOnUse" x2="-17" y1="337" y2="377" id="linearGradient4" spreadMethod="reflect">
        <stop stop-opacity="1" stop-color="rgb(102,102,255)" offset="0%"/>
        <stop stop-opacity="1" stop-color="rgb(102,102,255)" offset="100%"/>
      </linearGradient>
      <linearGradient x1="346" gradientUnits="userSpaceOnUse" x2="455" y1="329" y2="380" id="linearGradient5" spreadMethod="reflect">
        <stop stop-opacity="1" stop-color="rgb(102,102,255)" offset="0%"/>
        <stop stop-opacity="1" stop-color="rgb(102,102,255)" offset="100%"/>
      </linearGradient>
      <linearGradient x1="182" gradientUnits="userSpaceOnUse" x2="304" y1="326" y2="377" id="linearGradient6" spreadMethod="reflect">
        <stop stop-opacity="1" stop-color="rgb(102,102,255)" offset="0%"/>
        <stop stop-opacity="1" stop-color="rgb(102,102,255)" offset="100%"/>
      </linearGradient>
      <linearGradient x1="182" gradientUnits="userSpaceOnUse" x2="304" y1="262" y2="313" id="linearGradient7" spreadMethod="reflect">
        <stop stop-opacity="1" stop-color="rgb(102,102,255)" offset="0%"/>
        <stop stop-opacity="1" stop-color="rgb(102,102,255)" offset="100%"/>
      </linearGradient>
      <linearGradient x1="182" gradientUnits="userSpaceOnUse" x2="304" y1="209" y2="249" id="linearGradient8" spreadMethod="reflect">
        <stop stop-opacity="1" stop-color="rgb(102,102,255)" offset="0%"/>
        <stop stop-opacity="1" stop-color="rgb(102,102,255)" offset="100%"/>
      </linearGradient>
      <linearGradient x1="182" gradientUnits="userSpaceOnUse" x2="304" y1="155" y2="195" id="linearGradient9" spreadMethod="reflect">
        <stop stop-opacity="1" stop-color="rgb(102,102,255)" offset="0%"/>
        <stop stop-opacity="1" stop-color="rgb(102,102,255)" offset="100%"/>
      </linearGradient>
      <linearGradient x1="-211" gradientUnits="userSpaceOnUse" x2="-151" y1="128" y2="168" id="linearGradient10" spreadMethod="reflect">
        <stop stop-opacity="1" stop-color="rgb(232,238,247)" offset="0%"/>
        <stop stop-opacity="1" stop-color="blue" offset="100%"/>
      </linearGradient>
      <linearGradient x1="-211" gradientUnits="userSpaceOnUse" x2="-151" y1="168" y2="208" id="linearGradient11" spreadMethod="reflect">
        <stop stop-opacity="1" stop-color="rgb(232,238,247)" offset="0%"/>
        <stop stop-opacity="1" stop-color="green" offset="100%"/>
      </linearGradient>
      <linearGradient x1="-211" gradientUnits="userSpaceOnUse" x2="-151" y1="208" y2="248" id="linearGradient12" spreadMethod="reflect">
        <stop stop-opacity="1" stop-color="rgb(232,238,247)" offset="0%"/>
        <stop stop-opacity="1" stop-color="maroon" offset="100%"/>
      </linearGradient>
      <linearGradient x1="-211" gradientUnits="userSpaceOnUse" x2="-151" y1="283" y2="323" id="linearGradient13" spreadMethod="reflect">
        <stop stop-opacity="1" stop-color="rgb(232,238,247)" offset="0%"/>
        <stop stop-opacity="1" stop-color="blue" offset="100%"/>
      </linearGradient>
      <linearGradient x1="-211" gradientUnits="userSpaceOnUse" x2="-151" y1="323" y2="363" id="linearGradient14" spreadMethod="reflect">
        <stop stop-opacity="1" stop-color="rgb(232,238,247)" offset="0%"/>
        <stop stop-opacity="1" stop-color="blue" offset="100%"/>
      </linearGradient>
      <linearGradient x1="-71" gradientUnits="userSpaceOnUse" x2="9" y1="70" y2="110" id="linearGradient15" spreadMethod="reflect">
        <stop stop-opacity="1" stop-color="rgb(232,238,247)" offset="0%"/>
        <stop stop-opacity="1" stop-color="blue" offset="100%"/>
      </linearGradient>
      <linearGradient x1="-71" gradientUnits="userSpaceOnUse" x2="9" y1="110" y2="150" id="linearGradient16" spreadMethod="reflect">
        <stop stop-opacity="1" stop-color="rgb(232,238,247)" offset="0%"/>
        <stop stop-opacity="1" stop-color="blue" offset="100%"/>
      </linearGradient>
      <linearGradient x1="30" gradientUnits="userSpaceOnUse" x2="110" y1="155" y2="195" id="linearGradient17" spreadMethod="reflect">
        <stop stop-opacity="1" stop-color="rgb(102,102,255)" offset="0%"/>
        <stop stop-opacity="1" stop-color="rgb(102,102,255)" offset="100%"/>
      </linearGradient>
      <linearGradient x1="30" gradientUnits="userSpaceOnUse" x2="110" y1="218" y2="269" id="linearGradient18" spreadMethod="reflect">
        <stop stop-opacity="1" stop-color="rgb(102,102,255)" offset="0%"/>
        <stop stop-opacity="1" stop-color="rgb(102,102,255)" offset="100%"/>
      </linearGradient>
      <linearGradient x1="18" gradientUnits="userSpaceOnUse" x2="140" y1="302" y2="377" id="linearGradient19" spreadMethod="reflect">
        <stop stop-opacity="1" stop-color="rgb(51,153,102)" offset="0%"/>
        <stop stop-opacity="1" stop-color="rgb(51,153,102)" offset="100%"/>
      </linearGradient>
      <linearGradient x1="182" gradientUnits="userSpaceOnUse" x2="262" y1="70" y2="121" id="linearGradient20" spreadMethod="reflect">
        <stop stop-opacity="1" stop-color="maroon" offset="0%"/>
        <stop stop-opacity="1" stop-color="maroon" offset="100%"/>
      </linearGradient>
      <linearGradient x1="327" gradientUnits="userSpaceOnUse" x2="426" y1="62" y2="102" id="linearGradient21" spreadMethod="reflect">
        <stop stop-opacity="1" stop-color="rgb(232,238,247)" offset="0%"/>
        <stop stop-opacity="1" stop-color="blue" offset="100%"/>
      </linearGradient>
      <linearGradient x1="346" gradientUnits="userSpaceOnUse" x2="455" y1="155" y2="195" id="linearGradient22" spreadMethod="reflect">
        <stop stop-opacity="1" stop-color="rgb(102,102,255)" offset="0%"/>
        <stop stop-opacity="1" stop-color="rgb(102,102,255)" offset="100%"/>
      </linearGradient>
      <linearGradient x1="346" gradientUnits="userSpaceOnUse" x2="455" y1="209" y2="260" id="linearGradient23" spreadMethod="reflect">
        <stop stop-opacity="1" stop-color="rgb(102,102,255)" offset="0%"/>
        <stop stop-opacity="1" stop-color="rgb(102,102,255)" offset="100%"/>
      </linearGradient>
      <linearGradient x1="346" gradientUnits="userSpaceOnUse" x2="455" y1="269" y2="320" id="linearGradient24" spreadMethod="reflect">
        <stop stop-opacity="1" stop-color="rgb(102,102,255)" offset="0%"/>
        <stop stop-opacity="1" stop-color="rgb(102,102,255)" offset="100%"/>
      </linearGradient>
      <clipPath clipPathUnits="userSpaceOnUse" id="clipPath1">
        <path d="M0 0 L742 0 L742 412 L0 412 L0 0 Z"/>
      </clipPath>
      <clipPath clipPathUnits="userSpaceOnUse" id="clipPath2">
        <path d="M-257 47 L485 47 L485 459 L-257 459 L-257 47 Z"/>
      </clipPath>
    </defs>
    <g fill="white" transform="translate(257,-47)" stroke="white">
      <rect x="-257" width="742" height="412" y="47" clip-path="url(#clipPath2)" stroke="none"/>
    </g>
    <g fill="url(#linearGradient1)" transform="matrix(1,0,0,1,257,-47)" stroke="url(#linearGradient1)">
      <path d="M-97 175 L-17 175 L-17 215 L-97 215 Z" clip-path="url(#clipPath2)" stroke="none"/>
    </g>
    <g stroke-linecap="butt" transform="matrix(1,0,0,1,257,-47)" stroke-miterlimit="1.45">
      <path fill="none" d="M-97 175 L-17 175 L-17 215 L-97 215 Z" clip-path="url(#clipPath2)"/>
      <text x="-73.5615" y="192.4688" clip-path="url(#clipPath2)" fill="white" font-family="sans-serif" stroke="none" xml:space="preserve">Apply</text>
      <text x="-75.1055" y="206.6016" clip-path="url(#clipPath2)" fill="white" font-family="sans-serif" stroke="none" xml:space="preserve">Masks</text>
    </g>
    <g fill="url(#linearGradient2)" transform="matrix(1,0,0,1,257,-47)" stroke="url(#linearGradient2)">
      <path d="M-97 229 L-17 229 L-17 269 L-97 269 Z" clip-path="url(#clipPath2)" stroke="none"/>
    </g>
    <g stroke-linecap="butt" transform="matrix(1,0,0,1,257,-47)" stroke-miterlimit="1.45">
      <path fill="none" d="M-97 229 L-17 229 L-17 269 L-97 269 Z" clip-path="url(#clipPath2)"/>
      <text x="-79.8721" y="246.4688" clip-path="url(#clipPath2)" fill="white" font-family="sans-serif" stroke="none" xml:space="preserve">Remove</text>
      <text x="-84.9844" y="260.6016" clip-path="url(#clipPath2)" fill="white" font-family="sans-serif" stroke="none" xml:space="preserve">Gradients</text>
    </g>
    <g fill="url(#linearGradient3)" transform="matrix(1,0,0,1,257,-47)" stroke="url(#linearGradient3)">
      <path d="M-97 283 L-17 283 L-17 323 L-97 323 Z" clip-path="url(#clipPath2)" stroke="none"/>
    </g>
    <g stroke-linecap="butt" transform="matrix(1,0,0,1,257,-47)" stroke-miterlimit="1.45">
      <path fill="none" d="M-97 283 L-17 283 L-17 323 L-97 323 Z" clip-path="url(#clipPath2)"/>
      <text x="-81.4043" y="300.4688" clip-path="url(#clipPath2)" fill="white" font-family="sans-serif" stroke="none" xml:space="preserve">Measure</text>
      <text x="-73.2539" y="314.6016" clip-path="url(#clipPath2)" fill="white" font-family="sans-serif" stroke="none" xml:space="preserve">Noise</text>
    </g>
    <g fill="url(#linearGradient4)" transform="matrix(1,0,0,1,257,-47)" stroke="url(#linearGradient4)">
      <path d="M-97 337 L-17 337 L-17 377 L-97 377 Z" clip-path="url(#clipPath2)" stroke="none"/>
    </g>
    <g stroke-linecap="butt" transform="matrix(1,0,0,1,257,-47)" stroke-miterlimit="1.45">
      <path fill="none" d="M-97 337 L-17 337 L-17 377 L-97 377 Z" clip-path="url(#clipPath2)"/>
      <text x="-73.5615" y="354.4688" clip-path="url(#clipPath2)" fill="white" font-family="sans-serif" stroke="none" xml:space="preserve">Apply</text>
      <text x="-75.1055" y="368.6016" clip-path="url(#clipPath2)" fill="white" font-family="sans-serif" stroke="none" xml:space="preserve">Masks</text>
    </g>
    <g stroke-linecap="butt" transform="matrix(1,0,0,1,257,-47)" stroke-miterlimit="1.45">
      <path fill="none" d="M-57 215.0127 L-57 220.986" clip-path="url(#clipPath2)"/>
    </g>
    <g stroke-linecap="butt" transform="matrix(1,0,0,1,257,-47)" stroke-miterlimit="1.45">
      <path d="M-57 228.986 L-52 216.986 L-57 219.986 L-62 216.986 Z" clip-path="url(#clipPath2)" stroke="none"/>
      <path fill="none" d="M-57 269.0127 L-57 274.986" clip-path="url(#clipPath2)"/>
      <path d="M-57 282.986 L-52 270.986 L-57 273.986 L-62 270.986 Z" clip-path="url(#clipPath2)" stroke="none"/>
      <path fill="none" d="M-57 323.0127 L-57 328.986" clip-path="url(#clipPath2)"/>
      <path d="M-57 336.986 L-52 324.986 L-57 327.986 L-62 324.986 Z" clip-path="url(#clipPath2)" stroke="none"/>
    </g>
    <g fill="url(#linearGradient5)" transform="matrix(1,0,0,1,257,-47)" stroke="url(#linearGradient5)">
      <path d="M346 329 L455 329 L455 380 L346 380 Z" clip-path="url(#clipPath2)" stroke="none"/>
    </g>
    <g stroke-linecap="butt" transform="matrix(1,0,0,1,257,-47)" stroke-miterlimit="1.45">
      <path fill="none" d="M346 329 L455 329 L455 380 L346 380 Z" clip-path="url(#clipPath2)"/>
      <text x="350.3291" y="344.9023" clip-path="url(#clipPath2)" fill="white" font-family="sans-serif" stroke="none" xml:space="preserve">Estimate intrinsic</text>
      <text x="350.8389" y="359.0352" clip-path="url(#clipPath2)" fill="white" font-family="sans-serif" stroke="none" xml:space="preserve">distributions and</text>
      <text x="362.7861" y="373.168" clip-path="url(#clipPath2)" fill="white" font-family="sans-serif" stroke="none" xml:space="preserve">uncertainties</text>
    </g>
    <g fill="maroon" transform="matrix(1,0,0,1,257,-47)" stroke="maroon">
      <path d="M339 329 L346 329 L346 380 L339 380 Z" clip-path="url(#clipPath2)" stroke="none"/>
    </g>
    <g stroke-linecap="butt" transform="matrix(1,0,0,1,257,-47)" stroke-miterlimit="1.45">
      <path fill="none" d="M339 329 L346 329 L346 380 L339 380 Z" clip-path="url(#clipPath2)"/>
    </g>
    <g fill="url(#linearGradient6)" transform="matrix(1,0,0,1,257,-47)" stroke="url(#linearGradient6)">
      <path d="M182 326 L304 326 L304 377 L182 377 Z" clip-path="url(#clipPath2)" stroke="none"/>
    </g>
    <g stroke-linecap="butt" transform="matrix(1,0,0,1,257,-47)" stroke-miterlimit="1.45">
      <path fill="none" d="M182 326 L304 326 L304 377 L182 377 Z" clip-path="url(#clipPath2)"/>
      <text x="204.5127" y="341.9023" clip-path="url(#clipPath2)" fill="white" font-family="sans-serif" stroke="none" xml:space="preserve">Characterize </text>
      <text x="201.1172" y="356.0352" clip-path="url(#clipPath2)" fill="white" font-family="sans-serif" stroke="none" xml:space="preserve">completeness </text>
      <text x="225.0352" y="370.168" clip-path="url(#clipPath2)" fill="white" font-family="sans-serif" stroke="none" xml:space="preserve">&amp; bias</text>
    </g>
    <g fill="maroon" transform="matrix(1,0,0,1,257,-47)" stroke="maroon">
      <path d="M175 326 L182 326 L182 377 L175 377 Z" clip-path="url(#clipPath2)" stroke="none"/>
    </g>
    <g stroke-linecap="butt" transform="matrix(1,0,0,1,257,-47)" stroke-miterlimit="1.45">
      <path fill="none" d="M175 326 L182 326 L182 377 L175 377 Z" clip-path="url(#clipPath2)"/>
    </g>
    <g fill="maroon" stroke-miterlimit="1.45" transform="matrix(1,0,0,1,257,-47)" stroke-linecap="butt" stroke="maroon">
      <path fill="none" d="M176.1339 377.0168 L176.5312 380.2567 L177.6162 384.6053 L179.3148 388.7103 L181.7148 392.5371 L184.9039 396.0508 L188.9698 399.2167 L194 402 L200.0404 404.3711 L206.9688 406.3217 L214.6211 407.8485 L222.8333 408.9484 L231.4414 409.6183 L240.2812 409.8549 L249.1888 409.6552 L258 409.0159 L266.5508 407.9339 L274.6771 406.406 L282.2148 404.4291 L289 402 L294.9096 399.1292 L299.985 395.8817 L304.3086 392.3362 L307.963 388.5714 L311.0305 384.666 L313.5938 380.6987 L315.7351 376.748 L317.537 372.8929 L319.082 369.2118 L320.4525 365.7835 L321.731 362.6867 L323 360 L324.3271 357.7823 L325.7211 356.0126 L327.1758 354.6504 L328.6852 353.6548 L330.2432 352.985 L331.0179 352.7989 L331.1176 352.8074" clip-path="url(#clipPath2)"/>
      <path d="M339.107 353.2184 L327.3797 347.6085 L330.1189 352.756 L326.866 357.5953 Z" clip-path="url(#clipPath2)" stroke="none"/>
    </g>
    <g fill="url(#linearGradient7)" transform="matrix(1,0,0,1,257,-47)" stroke="url(#linearGradient7)">
      <path d="M182 262 L304 262 L304 313 L182 313 Z" clip-path="url(#clipPath2)" stroke="none"/>
    </g>
    <g stroke-linecap="butt" transform="matrix(1,0,0,1,257,-47)" stroke-miterlimit="1.45">
      <path fill="none" d="M182 262 L304 262 L304 313 L182 313 Z" clip-path="url(#clipPath2)"/>
      <text x="208.4355" y="277.9023" clip-path="url(#clipPath2)" fill="white" font-family="sans-serif" stroke="none" xml:space="preserve">Multi-band </text>
      <text x="202.9658" y="292.0352" clip-path="url(#clipPath2)" fill="white" font-family="sans-serif" stroke="none" xml:space="preserve">profile-fitting</text>
      <text x="209.1064" y="306.168" clip-path="url(#clipPath2)" fill="white" font-family="sans-serif" stroke="none" xml:space="preserve">photometry</text>
    </g>
    <g fill="maroon" transform="matrix(1,0,0,1,257,-47)" stroke="maroon">
      <path d="M175 262 L182 262 L182 313 L175 313 Z" clip-path="url(#clipPath2)" stroke="none"/>
    </g>
    <g stroke-linecap="butt" transform="matrix(1,0,0,1,257,-47)" stroke-miterlimit="1.45">
      <path fill="none" d="M175 262 L182 262 L182 313 L175 313 Z" clip-path="url(#clipPath2)"/>
    </g>
    <g stroke-linecap="butt" transform="matrix(1,0,0,1,257,-47)" stroke-miterlimit="1.45">
      <path fill="none" d="M243 312.9688 L243 318.0257" clip-path="url(#clipPath2)"/>
      <path d="M243 326.0257 L248 314.0257 L243 317.0257 L238 314.0257 Z" clip-path="url(#clipPath2)" stroke="none"/>
      <path fill="none" d="M303.9784 298.3476 L304.8568 298.6043 L309 300 L312.7719 301.4829 L316.2145 303.0525 L319.3844 304.7062 L322.3383 306.442 L325.1329 308.2573 L327.825 310.15 L330.4713 312.1177 L333.1284 314.158 L335.8531 316.2687 L338.7021 318.4475 L341.7322 320.692 L345 323 L347.6045 324.7384 L347.6892 324.7914" clip-path="url(#clipPath2)"/>
      <path d="M354.4521 329.0651 L346.9788 318.4279 L346.8438 324.2573 L341.6367 326.8814 Z" clip-path="url(#clipPath2)" stroke="none"/>
      <path fill="none" d="M174.9816 290.6235 L172.5509 293.5717 L169.9219 296.8359 L167.4074 300.0741 L165.0457 303.2775 L162.875 306.4375 L160.9334 309.5454 L159.2593 312.5926 L157.8906 315.5703 L156.8657 318.4699 L156.2228 321.2827 L156 324 L156.2228 326.616 L156.8657 329.1366 L157.8906 331.5703 L159.2593 333.9259 L160.9335 336.2121 L162.875 338.4375 L165.0457 340.6108 L167.4074 342.7408 L168.6889 343.8086 L168.7681 343.8698" clip-path="url(#clipPath2)" stroke="maroon"/>
      <path fill="maroon" d="M175.0602 348.8102 L168.7098 337.4669 L167.9815 343.2522 L162.5341 345.3321 Z" clip-path="url(#clipPath2)" stroke="none"/>
    </g>
    <g fill="url(#linearGradient8)" transform="matrix(1,0,0,1,257,-47)" stroke="url(#linearGradient8)">
      <path d="M182 209 L304 209 L304 249 L182 249 Z" clip-path="url(#clipPath2)" stroke="none"/>
    </g>
    <g stroke-linecap="butt" transform="matrix(1,0,0,1,257,-47)" stroke-miterlimit="1.45">
      <path fill="none" d="M182 209 L304 209 L304 249 L182 249 Z" clip-path="url(#clipPath2)"/>
      <text x="197.3584" y="226.4688" clip-path="url(#clipPath2)" fill="white" font-family="sans-serif" stroke="none" xml:space="preserve">Measure source</text>
      <text x="202.7754" y="240.6016" clip-path="url(#clipPath2)" fill="white" font-family="sans-serif" stroke="none" xml:space="preserve">morphologies</text>
    </g>
    <g fill="maroon" transform="matrix(1,0,0,1,257,-47)" stroke="maroon">
      <path d="M175 209 L182 209 L182 249 L175 249 Z" clip-path="url(#clipPath2)" stroke="none"/>
    </g>
    <g stroke-linecap="butt" transform="matrix(1,0,0,1,257,-47)" stroke-miterlimit="1.45">
      <path fill="none" d="M175 209 L182 209 L182 249 L175 249 Z" clip-path="url(#clipPath2)"/>
    </g>
    <g stroke-linecap="butt" transform="matrix(1,0,0,1,257,-47)" stroke-miterlimit="1.45">
      <path fill="none" d="M243 249.0237 L243 253.9869" clip-path="url(#clipPath2)"/>
      <path d="M243 261.9869 L248 249.9869 L243 252.9869 L238 249.9869 Z" clip-path="url(#clipPath2)" stroke="none"/>
      <path fill="none" d="M174.9748 231.5827 L174.6328 231.8747 L171.3125 234.7477 L168.0859 237.6172 L165 240.4815 L162.1016 243.3388 L159.4375 246.1875 L157.0547 249.0258 L155 251.8519 L153.3203 254.6641 L152.0625 257.4606 L151.2734 260.2399 L151 263 L151.2734 265.7399 L152.0625 268.4607 L153.3203 271.1641 L155 273.8519 L157.0547 276.5258 L159.4375 279.1875 L162.1016 281.8388 L165 284.4815 L168.0859 287.1172 L168.7294 287.6418 L168.8079 287.7038" clip-path="url(#clipPath2)" stroke="maroon"/>
      <path fill="maroon" d="M175.0528 292.7039 L168.8104 281.3007 L168.0273 287.0788 L162.5604 289.1069 Z" clip-path="url(#clipPath2)" stroke="none"/>
    </g>
    <g fill="url(#linearGradient9)" transform="matrix(1,0,0,1,257,-47)" stroke="url(#linearGradient9)">
      <path d="M182 155 L304 155 L304 195 L182 195 Z" clip-path="url(#clipPath2)" stroke="none"/>
    </g>
    <g stroke-linecap="butt" transform="matrix(1,0,0,1,257,-47)" stroke-miterlimit="1.45">
      <path fill="none" d="M182 155 L304 155 L304 195 L182 195 Z" clip-path="url(#clipPath2)"/>
      <text x="196.0078" y="172.4688" clip-path="url(#clipPath2)" fill="white" font-family="sans-serif" stroke="none" xml:space="preserve">Science-specific</text>
      <text x="194.5957" y="186.6016" clip-path="url(#clipPath2)" fill="white" font-family="sans-serif" stroke="none" xml:space="preserve">source detection</text>
    </g>
    <g fill="maroon" transform="matrix(1,0,0,1,257,-47)" stroke="maroon">
      <path d="M175 155 L182 155 L182 195 L175 195 Z" clip-path="url(#clipPath2)" stroke="none"/>
    </g>
    <g stroke-linecap="butt" transform="matrix(1,0,0,1,257,-47)" stroke-miterlimit="1.45">
      <path fill="none" d="M175 155 L182 155 L182 195 L175 195 Z" clip-path="url(#clipPath2)"/>
    </g>
    <g fill="url(#linearGradient10)" transform="matrix(1,0,0,1,257,-47)" stroke="url(#linearGradient10)">
      <path d="M-211 136 C-209.2 128 -152.8 128 -151 136 L-151 160 C-152.8 168 -209.2 168 -211 160 Z" clip-path="url(#clipPath2)" stroke="none"/>
    </g>
    <g stroke-linecap="butt" transform="matrix(1,0,0,1,257,-47)" stroke-miterlimit="1.45">
      <path fill="none" d="M-211 136 C-209.2 128 -152.8 128 -151 136 L-151 160 C-152.8 168 -209.2 168 -211 160 Z" clip-path="url(#clipPath2)"/>
      <path fill="none" d="M-151 136 C-152.8 144 -209.2 144 -211 136" clip-path="url(#clipPath2)"/>
      <text x="-195.0244" y="145.4688" clip-path="url(#clipPath2)" fill="white" font-family="sans-serif" stroke="none" xml:space="preserve">JWST</text>
      <text x="-198.7275" y="159.6016" clip-path="url(#clipPath2)" fill="white" font-family="sans-serif" stroke="none" xml:space="preserve">Image</text>
    </g>
    <g fill="url(#linearGradient11)" transform="matrix(1,0,0,1,257,-47)" stroke="url(#linearGradient11)">
      <path d="M-211 176 C-209.2 168 -152.8 168 -151 176 L-151 200 C-152.8 208 -209.2 208 -211 200 Z" clip-path="url(#clipPath2)" stroke="none"/>
    </g>
    <g stroke-linecap="butt" transform="matrix(1,0,0,1,257,-47)" stroke-miterlimit="1.45">
      <path fill="none" d="M-211 176 C-209.2 168 -152.8 168 -151 176 L-151 200 C-152.8 208 -209.2 208 -211 200 Z" clip-path="url(#clipPath2)"/>
      <path fill="none" d="M-151 176 C-152.8 184 -209.2 184 -211 176" clip-path="url(#clipPath2)"/>
      <text x="-195.0244" y="185.4688" clip-path="url(#clipPath2)" fill="white" font-family="sans-serif" stroke="none" xml:space="preserve">JWST</text>
      <text x="-198.7275" y="199.6016" clip-path="url(#clipPath2)" fill="white" font-family="sans-serif" stroke="none" xml:space="preserve">Image</text>
    </g>
    <g fill="url(#linearGradient12)" transform="matrix(1,0,0,1,257,-47)" stroke="url(#linearGradient12)">
      <path d="M-211 216 C-209.2 208 -152.8 208 -151 216 L-151 240 C-152.8 248 -209.2 248 -211 240 Z" clip-path="url(#clipPath2)" stroke="none"/>
    </g>
    <g stroke-linecap="butt" transform="matrix(1,0,0,1,257,-47)" stroke-miterlimit="1.45">
      <path fill="none" d="M-211 216 C-209.2 208 -152.8 208 -151 216 L-151 240 C-152.8 248 -209.2 248 -211 240 Z" clip-path="url(#clipPath2)"/>
      <path fill="none" d="M-151 216 C-152.8 224 -209.2 224 -211 216" clip-path="url(#clipPath2)"/>
      <text x="-195.0244" y="225.6016" clip-path="url(#clipPath2)" fill="white" font-family="sans-serif" stroke="none" xml:space="preserve">JWST</text>
      <text x="-198.7275" y="239.7344" clip-path="url(#clipPath2)" fill="white" font-family="sans-serif" stroke="none" xml:space="preserve">Image</text>
    </g>
    <g fill="url(#linearGradient13)" transform="matrix(1,0,0,1,257,-47)" stroke="url(#linearGradient13)">
      <path d="M-211 291 C-209.2 283 -152.8 283 -151 291 L-151 315 C-152.8 323 -209.2 323 -211 315 Z" clip-path="url(#clipPath2)" stroke="none"/>
    </g>
    <g stroke-linecap="butt" transform="matrix(1,0,0,1,257,-47)" stroke-miterlimit="1.45">
      <path fill="none" d="M-211 291 C-209.2 283 -152.8 283 -151 291 L-151 315 C-152.8 323 -209.2 323 -211 315 Z" clip-path="url(#clipPath2)"/>
      <path fill="none" d="M-151 291 C-152.8 299 -209.2 299 -211 291" clip-path="url(#clipPath2)"/>
      <text x="-192.4346" y="300.4688" clip-path="url(#clipPath2)" fill="white" font-family="sans-serif" stroke="none" xml:space="preserve">HST</text>
      <text x="-198.7275" y="314.6016" clip-path="url(#clipPath2)" fill="white" font-family="sans-serif" stroke="none" xml:space="preserve">Image</text>
    </g>
    <g fill="url(#linearGradient14)" transform="matrix(1,0,0,1,257,-47)" stroke="url(#linearGradient14)">
      <path d="M-211 331 C-209.2 323 -152.8 323 -151 331 L-151 355 C-152.8 363 -209.2 363 -211 355 Z" clip-path="url(#clipPath2)" stroke="none"/>
    </g>
    <g stroke-linecap="butt" transform="matrix(1,0,0,1,257,-47)" stroke-miterlimit="1.45">
      <path fill="none" d="M-211 331 C-209.2 323 -152.8 323 -151 331 L-151 355 C-152.8 363 -209.2 363 -211 355 Z" clip-path="url(#clipPath2)"/>
      <path fill="none" d="M-151 331 C-152.8 339 -209.2 339 -211 331" clip-path="url(#clipPath2)"/>
      <text x="-197.6465" y="340.4688" clip-path="url(#clipPath2)" fill="white" font-family="sans-serif" stroke="none" xml:space="preserve">ALMA</text>
      <text x="-198.7275" y="354.6016" clip-path="url(#clipPath2)" fill="white" font-family="sans-serif" stroke="none" xml:space="preserve">Image</text>
    </g>
    <g fill="url(#linearGradient15)" transform="matrix(1,0,0,1,257,-47)" stroke="url(#linearGradient15)">
      <path d="M-71 78 C-68.6 70 6.6 70 9 78 L9 102 C6.6 110 -68.6 110 -71 102 Z" clip-path="url(#clipPath2)" stroke="none"/>
    </g>
    <g stroke-linecap="butt" transform="matrix(1,0,0,1,257,-47)" stroke-miterlimit="1.45">
      <path fill="none" d="M-71 78 C-68.6 70 6.6 70 9 78 L9 102 C6.6 110 -68.6 110 -71 102 Z" clip-path="url(#clipPath2)"/>
      <path fill="none" d="M9 78 C6.6 86 -68.6 86 -71 78" clip-path="url(#clipPath2)"/>
      <text x="-60.1826" y="87.4688" clip-path="url(#clipPath2)" fill="white" font-family="sans-serif" stroke="none" xml:space="preserve">JWST level</text>
      <text x="-60.8564" y="101.6016" clip-path="url(#clipPath2)" fill="white" font-family="sans-serif" stroke="none" xml:space="preserve">4 catalogs</text>
    </g>
    <g fill="url(#linearGradient16)" transform="matrix(1,0,0,1,257,-47)" stroke="url(#linearGradient16)">
      <path d="M-71 118 C-68.6 110 6.6 110 9 118 L9 142 C6.6 150 -68.6 150 -71 142 Z" clip-path="url(#clipPath2)" stroke="none"/>
    </g>
    <g stroke-linecap="butt" transform="matrix(1,0,0,1,257,-47)" stroke-miterlimit="1.45">
      <path fill="none" d="M-71 118 C-68.6 110 6.6 110 9 118 L9 142 C6.6 150 -68.6 150 -71 142 Z" clip-path="url(#clipPath2)"/>
      <path fill="none" d="M9 118 C6.6 126 -68.6 126 -71 118" clip-path="url(#clipPath2)"/>
      <text x="-54.7451" y="127.4688" clip-path="url(#clipPath2)" fill="white" font-family="sans-serif" stroke="none" xml:space="preserve">External</text>
      <text x="-56.2422" y="141.6016" clip-path="url(#clipPath2)" fill="white" font-family="sans-serif" stroke="none" xml:space="preserve">Catalogs</text>
    </g>
    <g fill="url(#linearGradient17)" transform="matrix(1,0,0,1,257,-47)" stroke="url(#linearGradient17)">
      <path d="M30 155 L110 155 L110 195 L30 195 Z" clip-path="url(#clipPath2)" stroke="none"/>
    </g>
    <g stroke-linecap="butt" transform="matrix(1,0,0,1,257,-47)" stroke-miterlimit="1.45">
      <path fill="none" d="M30 155 L110 155 L110 195 L30 195 Z" clip-path="url(#clipPath2)"/>
      <text x="54.9268" y="172.4688" clip-path="url(#clipPath2)" fill="white" font-family="sans-serif" stroke="none" xml:space="preserve">Align</text>
      <text x="49.2139" y="186.6016" clip-path="url(#clipPath2)" fill="white" font-family="sans-serif" stroke="none" xml:space="preserve">Images</text>
    </g>
    <g fill="url(#linearGradient18)" transform="matrix(1,0,0,1,257,-47)" stroke="url(#linearGradient18)">
      <path d="M30 218 L110 218 L110 269 L30 269 Z" clip-path="url(#clipPath2)" stroke="none"/>
    </g>
    <g stroke-linecap="butt" transform="matrix(1,0,0,1,257,-47)" stroke-miterlimit="1.45">
      <path fill="none" d="M30 218 L110 218 L110 269 L30 269 Z" clip-path="url(#clipPath2)"/>
      <text x="41.6406" y="233.9023" clip-path="url(#clipPath2)" fill="white" font-family="sans-serif" stroke="none" xml:space="preserve">Construct</text>
      <text x="31.1816" y="248.0352" clip-path="url(#clipPath2)" fill="white" font-family="sans-serif" stroke="none" xml:space="preserve">PSF matching</text>
      <text x="48.8359" y="262.168" clip-path="url(#clipPath2)" fill="white" font-family="sans-serif" stroke="none" xml:space="preserve">kernels</text>
    </g>
    <g fill="url(#linearGradient19)" transform="matrix(1,0,0,1,257,-47)" stroke="url(#linearGradient19)">
      <path d="M18 302 L140 302 L130 377 L28 377 Z" clip-path="url(#clipPath2)" stroke="none"/>
    </g>
    <g stroke-linecap="butt" transform="matrix(1,0,0,1,257,-47)" stroke-miterlimit="1.45">
      <path fill="none" d="M18 302 L140 302 L130 377 L28 377 Z" clip-path="url(#clipPath2)"/>
      <text x="45.1123" y="329.9023" clip-path="url(#clipPath2)" fill="white" font-family="sans-serif" stroke="none" xml:space="preserve">Inspection, </text>
      <text x="40.1143" y="344.0352" clip-path="url(#clipPath2)" fill="white" font-family="sans-serif" stroke="none" xml:space="preserve">sanity checks</text>
      <text x="49.2666" y="358.168" clip-path="url(#clipPath2)" fill="white" font-family="sans-serif" stroke="none" xml:space="preserve">everwhere</text>
    </g>
    <g fill="url(#linearGradient20)" transform="matrix(1,0,0,1,257,-47)" stroke="url(#linearGradient20)">
      <path d="M182 70 L262 70 L262 121 L182 121 Z" clip-path="url(#clipPath2)" stroke="none"/>
    </g>
    <g stroke-linecap="butt" transform="matrix(1,0,0,1,257,-47)" stroke-miterlimit="1.45">
      <path fill="none" d="M182 70 L262 70 L262 121 L182 121 Z" clip-path="url(#clipPath2)"/>
      <text x="205.4473" y="85.9023" clip-path="url(#clipPath2)" fill="white" font-family="sans-serif" stroke="none" xml:space="preserve">Insert</text>
      <text x="197.6309" y="100.0352" clip-path="url(#clipPath2)" fill="white" font-family="sans-serif" stroke="none" xml:space="preserve">Artificial</text>
      <text x="199.4297" y="114.168" clip-path="url(#clipPath2)" fill="white" font-family="sans-serif" stroke="none" xml:space="preserve">Sources</text>
    </g>
    <g fill="url(#linearGradient21)" transform="matrix(1,0,0,1,257,-47)" stroke="url(#linearGradient21)">
      <path d="M327 70 C329.97 62 423.03 62 426 70 L426 94 C423.03 102 329.97 102 327 94 Z" clip-path="url(#clipPath2)" stroke="none"/>
    </g>
    <g stroke-linecap="butt" transform="matrix(1,0,0,1,257,-47)" stroke-miterlimit="1.45">
      <path fill="none" d="M327 70 C329.97 62 423.03 62 426 70 L426 94 C423.03 102 329.97 102 327 94 Z" clip-path="url(#clipPath2)"/>
      <path fill="none" d="M426 70 C423.03 78 329.97 78 327 70" clip-path="url(#clipPath2)"/>
      <text x="336.29" y="79.4688" clip-path="url(#clipPath2)" fill="white" font-family="sans-serif" stroke="none" xml:space="preserve">Spectroscopic</text>
      <text x="349.5615" y="93.6016" clip-path="url(#clipPath2)" fill="white" font-family="sans-serif" stroke="none" xml:space="preserve">Redshifts</text>
    </g>
    <g fill="url(#linearGradient22)" transform="matrix(1,0,0,1,257,-47)" stroke="url(#linearGradient22)">
      <path d="M346 155 L455 155 L455 195 L346 195 Z" clip-path="url(#clipPath2)" stroke="none"/>
    </g>
    <g stroke-linecap="butt" transform="matrix(1,0,0,1,257,-47)" stroke-miterlimit="1.45">
      <path fill="none" d="M346 155 L455 155 L455 195 L346 195 Z" clip-path="url(#clipPath2)"/>
      <text x="382.9775" y="172.4688" clip-path="url(#clipPath2)" fill="white" font-family="sans-serif" stroke="none" xml:space="preserve">Match</text>
      <text x="378.5186" y="186.6016" clip-path="url(#clipPath2)" fill="white" font-family="sans-serif" stroke="none" xml:space="preserve">Objects</text>
    </g>
    <g fill="url(#linearGradient23)" transform="matrix(1,0,0,1,257,-47)" stroke="url(#linearGradient23)">
      <path d="M346 209 L455 209 L455 260 L346 260 Z" clip-path="url(#clipPath2)" stroke="none"/>
    </g>
    <g stroke-linecap="butt" transform="matrix(1,0,0,1,257,-47)" stroke-miterlimit="1.45">
      <path fill="none" d="M346 209 L455 209 L455 260 L346 260 Z" clip-path="url(#clipPath2)"/>
      <text x="373.9746" y="224.9023" clip-path="url(#clipPath2)" fill="white" font-family="sans-serif" stroke="none" xml:space="preserve">Compute</text>
      <text x="364.9336" y="239.0352" clip-path="url(#clipPath2)" fill="white" font-family="sans-serif" stroke="none" xml:space="preserve">photometric</text>
      <text x="374.9004" y="253.168" clip-path="url(#clipPath2)" fill="white" font-family="sans-serif" stroke="none" xml:space="preserve">redshifts</text>
    </g>
    <g fill="url(#linearGradient24)" transform="matrix(1,0,0,1,257,-47)" stroke="url(#linearGradient24)">
      <path d="M346 269 L455 269 L455 320 L346 320 Z" clip-path="url(#clipPath2)" stroke="none"/>
    </g>
    <g stroke-linecap="butt" transform="matrix(1,0,0,1,257,-47)" stroke-miterlimit="1.45">
      <path fill="none" d="M346 269 L455 269 L455 320 L346 320 Z" clip-path="url(#clipPath2)"/>
      <text x="369.542" y="284.9023" clip-path="url(#clipPath2)" fill="white" font-family="sans-serif" stroke="none" xml:space="preserve">Fit SEDs to</text>
      <text x="361.5791" y="299.0352" clip-path="url(#clipPath2)" fill="white" font-family="sans-serif" stroke="none" xml:space="preserve">estimate SFR,</text>
      <text x="353.7246" y="313.168" clip-path="url(#clipPath2)" fill="white" font-family="sans-serif" stroke="none" xml:space="preserve">M*,Age,E(B-V)...</text>
    </g>
    <g stroke-miterlimit="1.45" font-family="sans-serif" transform="matrix(1,0,0,1,257,-47)" stroke-linecap="butt">
      <text x="-224.5557" xml:space="preserve" y="92.4688" clip-path="url(#clipPath2)" stroke="none">Pipeline level 3</text>
      <text x="-206.793" xml:space="preserve" y="106.6016" clip-path="url(#clipPath2)" stroke="none">products</text>
    </g>
    <g stroke-linecap="butt" transform="matrix(1,0,0,1,257,-47)" stroke-miterlimit="1.45">
      <path fill="none" d="M243 195.0127 L243 200.986" clip-path="url(#clipPath2)"/>
      <path d="M243 208.986 L248 196.986 L243 199.986 L238 196.986 Z" clip-path="url(#clipPath2)" stroke="none"/>
      <path fill="none" d="M175.0055 177.6946 L172.1852 180.2639 L169.375 182.8906 L166.6815 185.5111 L164.1435 188.1233 L161.8 190.725 L159.6898 193.3142 L157.8519 195.8889 L156.325 198.4469 L155.1481 200.9861 L154.3602 203.5045 L154 206 L154.0907 208.4679 L154.5926 210.8935 L155.45 213.2594 L156.6074 215.5481 L158.0093 217.7425 L159.6 219.825 L161.3241 221.7784 L163.1259 223.5852 L164.95 225.2281 L166.7407 226.6898 L167.895 227.5465 L167.9851 227.59" clip-path="url(#clipPath2)" stroke="maroon"/>
      <path fill="maroon" d="M175.1319 231.1848 L166.6584 221.3258 L167.0917 227.1406 L162.1649 230.2593 Z" clip-path="url(#clipPath2)" stroke="none"/>
      <path fill="none" d="M-150.999 159.3713 L-104.4578 177.012" clip-path="url(#clipPath2)"/>
      <path d="M-96.9771 179.8474 L-106.426 170.9188 L-105.3929 176.6575 L-109.9703 180.2697 Z" clip-path="url(#clipPath2)" stroke="none"/>
      <path fill="none" d="M-150.999 189.6936 L-104.9644 192.2923" clip-path="url(#clipPath2)"/>
      <path d="M-96.9771 192.7432 L-108.6762 187.0748 L-105.9628 192.236 L-109.2399 197.0589 Z" clip-path="url(#clipPath2)" stroke="none"/>
      <path fill="none" d="M-150.999 220.0159 L-104.708 207.6965" clip-path="url(#clipPath2)"/>
      <path d="M-96.9771 205.6391 L-109.8594 203.8934 L-105.6744 207.9537 L-107.2876 213.557 Z" clip-path="url(#clipPath2)" stroke="none"/>
      <path fill="none" d="M-150.9806 293.3235 L-147.4448 291.6169 L-143.8642 289.5185 L-140.7688 287.2313 L-138.2191 284.7315 L-136.276 281.9956 L-135 279 L-134.4177 275.7314 L-134.4198 272.2176 L-134.8625 268.4969 L-135.6025 264.6074 L-136.4961 260.5874 L-137.4 256.475 L-138.1705 252.3085 L-138.6642 248.1259 L-138.7375 243.9656 L-138.2469 239.8657 L-137.0489 235.8645 L-135 232 L-131.9944 228.3017 L-128.0772 224.7639 L-123.3313 221.3719 L-117.8395 218.1111 L-111.6848 214.967 L-104.95 211.925 L-104.3853 211.6943 L-104.2918 211.6591" clip-path="url(#clipPath2)"/>
      <path d="M-96.8786 208.6515 L-109.8781 208.5296 L-105.2184 212.035 L-106.1186 217.7961 Z" clip-path="url(#clipPath2)" stroke="none"/>
      <path fill="none" d="M-151.1165 330.6705 L-146.6009 328.5106 L-140.625 325.325 L-135.1422 321.9825 L-130.2346 318.4568 L-125.9844 314.7219 L-122.4738 310.7516 L-119.7849 306.5196 L-118 302 L-117.1595 297.1793 L-117.1373 292.0957 L-117.7656 286.8 L-118.8765 281.3432 L-120.3023 275.7762 L-121.875 270.15 L-123.4269 264.5154 L-124.7901 258.9235 L-125.7969 253.425 L-126.2793 248.071 L-126.0696 242.9124 L-125 238 L-122.9448 233.3723 L-119.9475 229.017 L-116.0938 224.9094 L-111.4691 221.0247 L-106.1593 217.3382 L-103.9883 216.0474 L-103.8997 216.001" clip-path="url(#clipPath2)"/>
      <path d="M-96.9262 212.0806 L-109.8367 213.6028 L-104.7714 216.4911 L-104.9362 222.3197 Z" clip-path="url(#clipPath2)" stroke="none"/>
      <path fill="none" d="M-45.4201 377.0163 L-41.963 382.3915 L-38.3241 387.4745 L-34.7656 391.7143 L-31.3035 394.9421 L-27.9537 396.9894 L-24.7324 397.6875 L-21.6557 396.8677 L-18.7395 394.3615 L-16 390 L-13.4493 383.6873 L-11.0839 375.6177 L-8.8965 366.058 L-6.8796 355.2751 L-5.026 343.5359 L-3.3281 331.1071 L-1.7787 318.2558 L-0.3704 305.2487 L0.9043 292.3527 L2.0527 279.8347 L3.0821 267.9615 L4 257 L4.8195 247.1588 L5.577 238.4134 L6.3145 230.6808 L7.0741 223.8783 L7.8979 217.923 L8.8281 212.7321 L9.9068 208.2228 L11.1759 204.3122 L12.6777 200.9174 L14.4543 197.9557 L16.5477 195.3442 L19 193 L21.8408 190.8516 L22.9357 190.1761 L23.0254 190.1319" clip-path="url(#clipPath2)"/>
      <path d="M30.0913 186.3805 L17.1478 187.5914 L22.1422 190.6008 L21.837 196.4238 Z" clip-path="url(#clipPath2)" stroke="none"/>
      <path fill="none" stroke-dasharray="6,2" d="M8.9993 89.4585 L10 90 L15.1014 93.2703 L20.4892 97.1682 L26.0719 101.5906 L31.758 106.4346 L37.4562 111.597 L43.075 116.975 L48.523 122.4655 L53.7086 127.9654 L58.5406 133.3719 L62.9275 138.5818 L66.7777 143.4922 L70 148 L70.0594 148.0945 L70.1058 148.1831" clip-path="url(#clipPath2)"/>
      <path stroke-dasharray="6,2" d="M74.1404 155.0912 L72.4061 142.2074 L69.6015 147.3196 L63.7709 147.2507 Z" clip-path="url(#clipPath2)" stroke="none"/>
      <path fill="none" stroke-dasharray="6,2" d="M8.9577 127.516 L10.4825 127.4986 L15.8704 127.5926 L21.043 127.8672 L25.9734 128.3449 L30.6347 129.0483 L35 130 L39.0514 131.215 L42.8067 132.6782 L46.293 134.3672 L49.537 136.2593 L52.5658 138.3319 L55.4062 140.5625 L58.0852 142.9285 L60.6296 145.4074 L63.0664 147.9766 L63.9371 148.951 L64.0019 149.0271" clip-path="url(#clipPath2)"/>
      <path stroke-dasharray="6,2" d="M69.2299 155.0826 L65.1726 142.7319 L63.3484 148.2702 L57.6033 149.2669 Z" clip-path="url(#clipPath2)" stroke="none"/>
      <path fill="none" d="M70 194.968 L70 209.9544" clip-path="url(#clipPath2)"/>
      <path d="M70 217.9544 L75 205.9544 L70 208.9544 L65 205.9544 Z" clip-path="url(#clipPath2)" stroke="none"/>
      <path fill="none" d="M82.577 268.9914 L84.3333 272.2275 L87.946 278.0789 L91.5781 282.9598 L95.2337 286.6764 L98.9167 289.0344 L102.6309 289.8398 L106.3802 288.8987 L110.1686 286.0167 L114 281 L117.8767 273.7489 L121.7946 264.5422 L125.748 253.7528 L129.7315 241.754 L133.7392 228.9188 L137.7656 215.6205 L141.8051 202.2322 L145.8519 189.127 L149.9004 176.678 L153.945 165.2584 L157.9801 155.2414 L162 147 L165.9991 140.81 L169.9716 136.557 L173.9121 134.0296 L177.8148 133.0159 L181.6741 133.3043 L185.4844 134.683 L189.2399 136.9405 L192.9352 139.8651 L196.5645 143.245 L200.1221 146.8685 L202.4425 149.3057 L202.513 149.3766" clip-path="url(#clipPath2)"/>
      <path d="M208.1308 155.0723 L203.264 143.0176 L201.8108 148.6646 L196.1444 150.0398 Z" clip-path="url(#clipPath2)" stroke="none"/>
      <path fill="none" d="M228.7368 121.0037 L235.6709 147.254" clip-path="url(#clipPath2)" stroke="maroon"/>
      <path fill="maroon" d="M237.714 154.9886 L239.4835 142.1096 L235.4155 146.2871 L229.8151 144.6636 Z" clip-path="url(#clipPath2)" stroke="none"/>
      <path fill="none" d="M304.0206 288.255 L305 287 L307.678 281.7549 L309.8688 275.517 L311.6406 268.4656 L313.0617 260.7802 L314.2004 252.6402 L315.125 244.225 L315.9037 235.7139 L316.6049 227.2864 L317.2969 219.1219 L318.0479 211.3997 L318.9261 204.2993 L320 198 L321.3227 192.6378 L322.8874 188.1744 L324.6719 184.5281 L326.6543 181.6173 L328.8127 179.3602 L331.125 177.675 L333.5692 176.4801 L336.1234 175.6938 L338.0119 175.3654 L338.1119 175.362" clip-path="url(#clipPath2)"/>
      <path d="M346.1029 174.9842 L333.8802 170.5565 L337.113 175.4093 L334.3525 180.5454 Z" clip-path="url(#clipPath2)" stroke="none"/>
      <path fill="none" d="M381.1289 99.937 L393.3461 147.2785" clip-path="url(#clipPath2)"/>
      <path d="M395.3451 155.0247 L397.188 142.156 L393.0962 146.3102 L387.5052 144.6548 Z" clip-path="url(#clipPath2)" stroke="none"/>
      <path fill="none" d="M304.0009 289.041 L307 287 L310.3826 283.7079 L313.3997 279.8025 L316.1219 275.4062 L318.6198 270.642 L320.9639 265.6323 L323.225 260.5 L325.4736 255.3677 L327.7802 250.358 L330.2156 245.5938 L332.8503 241.1975 L335.7549 237.2921 L339 234 L339.124 233.9118 L339.2143 233.8689" clip-path="url(#clipPath2)"/>
      <path d="M346.081 229.7641 L333.2155 231.6296 L338.356 234.382 L338.3465 240.2129 Z" clip-path="url(#clipPath2)" stroke="none"/>
      <path fill="none" d="M304.0236 290.2122 L338.0044 291.7224" clip-path="url(#clipPath2)"/>
      <path d="M345.9965 292.0776 L334.2303 286.5497 L337.0053 291.678 L333.7863 296.5399 Z" clip-path="url(#clipPath2)" stroke="none"/>
    </g>
  </g>
</svg>
